<?xml version="1.0" encoding="utf-8"?>
<!-- Generator: Adobe Illustrator 24.1.2, SVG Export Plug-In . SVG Version: 6.00 Build 0)  -->
<svg version="1.1" id="Warstwa_3" xmlns="http://www.w3.org/2000/svg" xmlns:xlink="http://www.w3.org/1999/xlink" x="0px" y="0px"
	 viewBox="0 0 430 430" style="enable-background:new 0 0 430 430;" xml:space="preserve">
<style type="text/css">
	.st0{fill:#121331;}
	.st1{fill:#08a88a;}
	.st2{fill:none;stroke:#08a88a;stroke-width:12.95;stroke-linecap:round;stroke-linejoin:round;stroke-miterlimit:14.8;}
	.st3{fill:none;}
</style>
<g>
	<path class="st0" d="M334.98,365.13H94.85c-12.55,0-24.34-4.89-33.22-13.78c-8.87-8.88-13.75-20.69-13.73-33.23l0.07-44.74
		c0.01-3.86,3.14-6.99,7-6.99c0,0,0.01,0,0.01,0c3.87,0.01,7,3.14,6.99,7.01l-0.07,44.73c-0.01,8.81,3.41,17.09,9.63,23.32
		c6.23,6.23,14.5,9.67,23.31,9.67h240.12c18.2,0,33.03-14.81,33.05-33.01l0.06-43.05c0.01-3.86,3.14-6.99,7-6.99c0,0,0.01,0,0.01,0
		c3.87,0,7,3.14,6.99,7.01l-0.06,43.05C382,344.05,360.89,365.13,334.98,365.13z"/>
	<path class="st1" d="M215.33,294.02c-1.76,0-3.44-0.7-4.68-1.94l-55.67-55.68c-2.59-2.58-2.58-6.78,0-9.36
		c2.59-2.59,6.78-2.58,9.36,0l44.4,44.4V71.87c0-3.66,2.96-6.62,6.62-6.62s6.62,2.96,6.62,6.62v199.52l44.7-44.7
		c2.59-2.59,6.78-2.58,9.36,0c2.58,2.58,2.58,6.78,0,9.36l-56.02,56.02C218.77,293.32,217.09,294.02,215.33,294.02z"/>
</g>
</svg>
